<?xml version="1.0" encoding="UTF-8"?>
<!DOCTYPE svg PUBLIC "-//W3C//DTD SVG 1.1//EN" "http://www.w3.org/Graphics/SVG/1.1/DTD/svg11.dtd">
<!-- Creator: CorelDRAW 2017 -->
<svg xmlns="http://www.w3.org/2000/svg" xml:space="preserve" width="2.17539in" height="1.10841in" version="1.1" style="shape-rendering:geometricPrecision; text-rendering:geometricPrecision; image-rendering:optimizeQuality; fill-rule:evenodd; clip-rule:evenodd"
viewBox="0 0 2175 1108"
 xmlns:xlink="http://www.w3.org/1999/xlink">
 <defs>
  <style type="text/css">
   <![CDATA[
    .str0 {stroke:black;stroke-width:6.94488}
    .fil2 {fill:none}
    .fil6 {fill:black}
    .fil8 {fill:#061113}
    .fil4 {fill:#0E6737}
    .fil9 {fill:#1C1C1C}
    .fil1 {fill:#767269}
    .fil7 {fill:#8DBE26}
    .fil10 {fill:#D0CFD4}
    .fil5 {fill:url(#id5)}
    .fil3 {fill:url(#id6)}
    .fil0 {fill:url(#id7)}
   ]]>
  </style>
   <clipPath id="id0">
    <path d="M1110 1048c-131,60 -490,-77 -618,-195l-162 -150c0,0 -47,-39 -73,-121 -17,-52 -25,-127 -29,-203 -11,-224 122,-348 457,-371 -298,-32 -454,50 -523,160 -86,137 -59,174 -105,301 -81,55 -62,269 -29,347 162,392 425,171 523,224 163,88 392,95 559,10z"/>
   </clipPath>
   <clipPath id="id1">
    <path d="M595 489l218 0c-84,-349 -234,-280 -554,-264 -21,112 -11,224 13,336 60,-103 21,-90 92,-150 96,-83 236,9 232,78z"/>
   </clipPath>
   <clipPath id="id2">
    <path d="M1666 670l77 0 -5 339c-12,80 -98,70 -162,70l-1 -66c33,-1 82,-10 90,-32l0 -311z"/>
   </clipPath>
   <clipPath id="id3">
    <path d="M1790 670l84 0 0 310 -84 0 0 -310z"/>
   </clipPath>
   <clipPath id="id4">
    <path d="M1463 1004c93,-106 363,-159 522,-183 80,-12 204,11 188,9 -51,-7 -148,-6 -183,3 -216,54 -306,80 -465,232l-63 -61z"/>
   </clipPath>
  <linearGradient id="id5" gradientUnits="userSpaceOnUse" x1="585" y1="585" x2="746" y2="955">
   <stop offset="0" style="stop-opacity:1; stop-color:#7DB327"/>
   <stop offset="1" style="stop-opacity:1; stop-color:#0E6737"/>
  </linearGradient>
  <linearGradient id="id6" gradientUnits="userSpaceOnUse" x1="623" y1="355" x2="296" y2="260">
   <stop offset="0" style="stop-opacity:1; stop-color:#99C37B"/>
   <stop offset="1" style="stop-opacity:1; stop-color:#7DB327"/>
  </linearGradient>
  <linearGradient id="id7" gradientUnits="userSpaceOnUse" x1="124" y1="689" x2="402" y2="19">
   <stop offset="0" style="stop-opacity:1; stop-color:#B0B1AC"/>
   <stop offset="1" style="stop-opacity:1; stop-color:#737270"/>
  </linearGradient>
 </defs>
 <g id="Layer_x0020_1">
  <metadata id="CorelCorpID_0Corel-Layer"/>
  <path class="fil0" d="M1110 1048c-131,60 -490,-77 -618,-195l-162 -150c0,0 -47,-39 -73,-121 -17,-52 -25,-127 -29,-203 -11,-224 122,-348 457,-371 -298,-32 -454,50 -523,160 -86,137 -59,174 -105,301 -81,55 -62,269 -29,347 162,392 425,171 523,224 163,88 392,95 559,10z"/>
  <g style="clip-path:url(#id0)">
   <g id="_1538472150368">
    <path id="1" class="fil1" d="M-42 769c78,124 344,-100 394,-75l887 440 -267 204 -1053 -67 38 -503z"/>
   </g>
  </g>
  <path class="fil2" d="M1110 1048c-131,60 -490,-77 -618,-195l-162 -150c0,0 -47,-39 -73,-121 -17,-52 -25,-127 -29,-203 -11,-224 122,-348 457,-371 -298,-32 -454,50 -523,160 -86,137 -59,174 -105,301 -81,55 -62,269 -29,347 162,392 425,171 523,224 163,88 392,95 559,10z"/>
  <path class="fil3" d="M595 489l218 0c-84,-349 -234,-280 -554,-264 -21,112 -11,224 13,336 60,-103 21,-90 92,-150 96,-83 236,9 232,78z"/>
  <g style="clip-path:url(#id1)">
   <g id="_1538472149536">
    <path id="1" class="fil4" d="M794 319c-4,13 -220,182 -220,182l263 5 -43 -186z"/>
   </g>
  </g>
  <path class="fil2" d="M595 489l218 0c-84,-349 -234,-280 -554,-264 -21,112 -11,224 13,336 60,-103 21,-90 92,-150 96,-83 236,9 232,78z"/>
  <path class="fil5" d="M500 587l317 -5 8 422c-130,-32 -231,-91 -309,-162l84 -48c0,-9 0,-18 0,-27 0,-44 -55,-26 -103,-26l2 -154z"/>
  <polygon class="fil6" points="1203,995 1097,670 939,670 855,995 940,995 963,897 1082,897 1117,995 "/>
  <path class="fil6" d="M1236 670l0 325 82 0 0 -207 84 107 83 -94 -1 175c21,-19 48,-36 79,-51l1 -254 -81 0 -82 112 -87 -112 -78 0z"/>
  <polygon class="fil7" points="1041,717 1070,832 972,832 999,717 "/>
  <path class="fil7" d="M1666 670l77 0 -5 339c-12,80 -98,70 -162,70l-1 -66c33,-1 82,-10 90,-32l0 -311z"/>
  <g style="clip-path:url(#id2)">
   <g id="_1538472151936">
    <rect class="fil8 str0" x="1558" y="908" width="185" height="308"/>
   </g>
  </g>
  <path class="fil2" d="M1666 670l77 0 -5 339c-12,80 -98,70 -162,70l-1 -66c33,-1 82,-10 90,-32l0 -311z"/>
  <polygon class="fil7" points="1790,670 1874,670 1874,980 1790,980 "/>
  <g style="clip-path:url(#id3)">
   <g id="_1538472153632">
    <rect class="fil9" x="1780" y="855" width="108" height="142"/>
   </g>
  </g>
  <polygon class="fil2" points="1790,670 1874,670 1874,980 1790,980 "/>
  <path class="fil7" d="M1463 1004c93,-106 363,-159 522,-183 80,-12 204,11 188,9 -51,-7 -148,-6 -183,3 -216,54 -306,80 -465,232l-63 -61z"/>
  <g style="clip-path:url(#id4)">
   <g id="_1538472155392">
    <path id="1" class="fil10" d="M2031 1022c21,-10 36,64 16,72 -21,8 325,-66 326,-73 1,-7 -66,-61 -66,-61l-275 63z"/>
   </g>
  </g>
  <path class="fil2" d="M1463 1004c93,-106 363,-159 522,-183 80,-12 204,11 188,9 -51,-7 -148,-6 -183,3 -216,54 -306,80 -465,232l-63 -61z"/>
 </g>
</svg>
